<svg transform="scale(1)" version="1.1" id="quBAHWwhNt" xmlns="http://www.w3.org/2000/svg" xmlns:xlink="http://www.w3.org/1999/xlink" x="0px" y="0px" viewBox="0 0 500 500" xml:space="preserve" class="pbimage_pbimage__wrapper__image__0LEis false"><title>Shopping</title><style type="text/css"> .st0{fill:#98A3ED;} .st1{fill:url(#SVGID_1_-quBAHWwhNt);} .st2{fill:url(#SVGID_00000134245189827362808850000017955616619167684531_-quBAHWwhNt);} .st3{fill:url(#SVGID_00000110466479644105915660000008927100494363638403_-quBAHWwhNt);} .st4{fill:#F7931E;} .st5{fill:#68E1FD;} .st6{opacity:0.63;fill:#2E3192;enable-background:new;} .st7{opacity:0.22;fill:#2E3192;enable-background:new;} .st8{fill:#FFC863;} .st9{fill:#FDEDCB;} .st10{fill:#42210B;} .st11{fill:#E55A5A;} .st12{fill:#C13030;} .st13{fill:#FF9C9C;}
 .st13{fill:#FF9C9C;}
 .st12{fill:#C13030;}
 .st11{fill:#E55A5A;}
 .st10{fill:#42210B;}
 .st9{fill:#FDEDCB;}
 .st8{fill:#FFC863;}
 .st7{fill:#2E3192;}
 .st6{fill:#2E3192;}
 .st5{fill:#68E1FD;}
 .st4{fill:#F7931E;}
 .st0{fill:#98A3ED;}</style><path class="st0" id="Base" d="M23.5,319.5l184.5,106.4c2.5,1.5,5.6,1.5,8.1,0l257.5-150c3.9-2.3,5.2-7.2,2.9-11.1
	c-0.7-1.2-1.7-2.2-2.9-2.9L285.3,152.5c-2.5-1.4-5.6-1.4-8.1,0L18,302.6c-3.9,2.3-5.2,7.2-2.9,11.1c0.8,1.3,1.9,2.4,3.2,3.1
	L23.5,319.5z"></path><g id="Shadow"><linearGradient id="SVGID_1_-quBAHWwhNt" gradientUnits="userSpaceOnUse" x1="235.3255" y1="-2234.2109" x2="403.2555" y2="-2336.2009" gradientTransform="matrix(1 0 0 1 0 2588.55)"><stop offset="0" style="stop-color: rgb(46, 49, 146); stop-opacity: 0;"></stop><stop offset="1" style="stop-color: rgb(46, 49, 146);"></stop></linearGradient><path class="st1" d="M209.5,397.6l116.3-65l-57.1-31.7L167,368.6C177.1,374.7,199.6,391.1,209.5,397.6z"></path><linearGradient id="SVGID_00000167375165956359577700000011920068261583210149_-quBAHWwhNt" gradientUnits="userSpaceOnUse" x1="300.4017" y1="-2269.2581" x2="359.3117" y2="-2317.488" gradientTransform="matrix(1 0 0 1 0 2588.55)"><stop offset="0" style="stop-color: rgb(46, 49, 146); stop-opacity: 0;"></stop><stop offset="1" style="stop-color: rgb(46, 49, 146);"></stop></linearGradient><path d="M293.7,340l72.5-43.3l-29.2-17.2
		l-77.4,41.8C269.8,327.4,283.8,333.6,293.7,340z" style="fill: url(&quot;#SVGID_00000167375165956359577700000011920068261583210149_-quBAHWwhNt&quot;);"></path><linearGradient id="SVGID_00000145033528462802216100000002989515096027691158_-quBAHWwhNt" gradientUnits="userSpaceOnUse" x1="81.2157" y1="-2290.3032" x2="198.8457" y2="-2388.9631" gradientTransform="matrix(1 0 0 1 0 2588.55)"><stop offset="0" style="stop-color: rgb(46, 49, 146); stop-opacity: 0;"></stop><stop offset="1" style="stop-color: rgb(46, 49, 146);"></stop></linearGradient><path d="M77.6,321.1l89.4-52.9l-34.9-33.6
		L38,292.5C47.3,298.1,64.6,313,77.6,321.1z" style="fill: url(&quot;#SVGID_00000145033528462802216100000002989515096027691158_-quBAHWwhNt&quot;);"></path></g><g id="Shopping_Bag"><path class="st4" d="M167.8,166.5v-26.9c0-6.2-0.8-13.4,0.8-19.5c1.9-7.2,10.9-16.9,18.9-11.1c4,2.9,4.2,8.9,4.2,13.5
		c0.1,9.6,0,19.3,0,29c0,1.3,1.1,2.4,2.4,2.4c1.3,0,2.4-1.1,2.4-2.4c0-11.2,1.2-23.1-0.3-34.3c-1.8-13.4-14.7-19-25.6-9.8
		c-7.3,6.2-7.7,15.7-7.7,24.6v34.5c0,1.3,1.1,2.4,2.4,2.4C166.7,168.9,167.7,167.8,167.8,166.5L167.8,166.5z"></path><polygon class="st5" points="140.6,151.4 208.6,112.3 230.8,122.7 167.2,175.2 	"></polygon><polygon class="st6" points="140.6,151.4 208.6,112.3 230.8,122.7 167.2,175.2 	"></polygon><path class="st5" d="M168.9,162.1c2-1.2,62-39.1,62-39.1l19.7,99.5L167,268.3L168.9,162.1z"></path><polyline class="st5" points="168.9,162.1 140.5,151.1 126.9,252.4 167,268.3 	"></polyline><polyline class="st7" points="168.9,162.1 140.5,151.1 126.9,252.4 167,268.3 	"></polyline><path class="st4" d="M189.1,172.7v-26.9c0-6.2-0.8-13.4,0.8-19.5c1.9-7.2,11-16.9,18.9-11.1c4,2.9,4.2,9,4.2,13.5
		c0.1,9.6,0,19.3,0,29c0.1,1.3,1.2,2.3,2.5,2.2c1.2-0.1,2.2-1,2.2-2.2c0-11.2,1.2-23.1-0.3-34.3c-1.8-13.3-14.7-19-25.6-9.7
		c-7.3,6.2-7.7,15.7-7.7,24.6v34.5c0.1,1.3,1.2,2.3,2.5,2.2C188,174.9,189,173.9,189.1,172.7L189.1,172.7z"></path></g><g id="Box"><path class="st4" d="M115.4,294.6v-37.3l33.4-18.7v37.1L115.4,294.6z"></path><path class="st4" d="M115.4,257.3l-32.5-18.7c0,0-0.9,37.6,0,38.2s32.5,17.8,32.5,17.8L115.4,257.3z"></path><polygon class="st8" points="82.9,238.6 115.4,218.8 148.8,238.6 115.4,257.3 	"></polygon><polygon class="st9" points="95.2,231.1 129.1,249.6 129.1,269.1 138.8,264.2 138.8,244.2 105,225.1 	"></polygon></g><g id="Character"><path class="st10" d="M344.7,81.6c0,0,6,4.6,8.2,9.6s2.3,5.3,6,7.8s2.4,4.8,1.3,7.8s-2.2,3.5,0.5,6.2s5.6,4.6,3.5,7.4
		s-3.7,3.3-1.6,6.4s4.8,4.7,3.5,7.6c0,0-22.8,4.1-38.2-0.9s-7-14.8-6.6-15.2S329,97,329,97"></path><path class="st4" d="M361.8,272.5c0,0-8.8,5.1-12.8,2.8c0,0,2.3,17.6-1.4,19.7s-9.2,6.5-7.5,7.7s2.1,2.4,7.2,1
		c3.3-1,6.5-2.3,9.6-3.8c0,0,1-9.6,2.8-9.1s1.4,8.2,1.4,8.2l5-2.1L361.8,272.5z"></path><path class="st4" d="M346.4,264.8c0,0-8.7,5.1-12.8,2.8c0,0,2.3,17.6-1.4,19.7s-9.2,6.5-7.5,7.7s2.1,2.4,7.2,1
		c3.3-1,6.5-2.3,9.6-3.8c0,0,1-9.6,2.8-9.1s1.4,8.2,1.4,8.2l5-2.1L346.4,264.8z"></path><path class="st5" d="M321.1,155.6c0,0-0.6,32.9-0.3,48.4s8.7,64.5,8.7,64.5s2.9,5.2,16.6,0.6l1.9,10c0,0,17.2,4.6,26.9-6
		c0,0-6-74.8-7-83.1c-1.9-16-12.8-36.1-12.8-36.1"></path><path class="st6" d="M337.3,170.8c-0.1-1.3-2.1-1.3-2,0c2.3,32.9,5.9,65.7,10.8,98.3c0.2,1.2,2.1,0.7,1.9-0.5
		C343.2,236.1,339.6,203.5,337.3,170.8z"></path><path class="st10" d="M331.7,230.5L265,271.2l-36.8,22.4c-1.5,0.7-2.9,1.6-4.2,2.6c-2,2.1-1.1-1.4,0.8,0.7c-3-3.2-9.3-5.5-13-7.7
		l-39.3-23.1v4.1l66.4-47.7l19.5-13.9c3.3-2.4,8.7-4.9,11.3-8.1c1.9-2.4,1.6,1-0.8-1.1c1.2,0.8,2.4,1.4,3.6,2l19.5,10.9l39.7,22.3
		c2.7,1.5,5.1-2.6,2.4-4.1l-62.9-35.2c-0.7-0.4-1.7-0.4-2.4,0l-98.7,70.9c-1.1,0.7-1.5,2.2-0.8,3.3c0.2,0.3,0.5,0.6,0.8,0.8
		l52.4,30.8c0.7,0.4,1.7,0.4,2.4,0l109.1-66.5C336.8,233.1,334.4,228.9,331.7,230.5z"></path><rect class="st10" x="224.3" y="297.4" transform="matrix(0.9989 -4.640909e-02 4.640909e-02 0.9989 -14.6834 10.779)" width="1" height="48.5"></rect><path class="st10" d="M171.5,270.3l5.6,32.4c1.1,6.4,0.3,17.4,6.2,21.1c11.1,7,23,12.9,34.4,19.3c2.5,1.4,5.9,4.4,8.9,4.2
		c1.6-0.1,3.7-1.6,5-2.2l73-32.5l14.3-6.4c1.6-0.7,4.5-1.4,5.8-2.6c1.7-1.6,1.6-4.3,2-6.6l2.9-17.9c2.3-14.1,4.4-28.3,6.8-42.4
		c0.7-4.1,1.6-8,2.6-12.1s0-2.6,2.7-5.7l6.2-7c0.9-0.9,1-2.5,0-3.4c0,0,0,0,0,0c-0.1-0.1-0.3-0.2-0.4-0.3L315.4,192l-21.2-10.9
		c-2.6-1.3-6.8-4.8-9.8-5c-3.5-0.3-11.6,5.3-13.9,7.8c-2.7,3-2.5,9.5-2.9,13.5c-1.1,11.6-1.4,23.3-2.1,35l-2.5,41.4
		c-0.2,3.1,4.6,3.1,4.8,0l4.4-72.7c0.2-4.1,0.9-6.4,1.3-10.9c0-0.7,0.9-4,0-2.6s1.6-0.8,2.3-1.2c2.7-1.7,6.4-3.2,8.7-5.4
		c-1.2,1.1-2.8-1.2,0,0.7c2,1.2,4.1,2.3,6.2,3.2l19.4,9.9l34.6,17.8l-0.5-3.8c-2.8,3.2-7,6.4-9,10.2s-2.5,9.9-3.3,14.4
		c-1.6,8.4-2.8,17-4.1,25.6l-6.2,38c-0.1,1.3-0.4,2.6-0.6,3.9c-0.1,0.6,2.1-1.3,0.2-0.6c-3,1-5.8,2.6-8.7,3.9l-72.4,32.2l-12,5.3
		c-1,0.3-1.9,0.7-2.8,1.2c-1.1,1.1,1.7,1,1-0.1c-1.7-2.8-10.1-5.7-12.8-7.2L195,324.8l-8.1-4.5c-0.8-0.4-1.6-0.8-2.3-1.3
		c-1.3-0.8,0.2,0.3,0.4,0.9c-1.4-4.3-1.6-9.6-2.4-14l-6.4-36.8c-0.5-3-5.1-1.7-4.6,1.3L171.5,270.3z"></path><path class="st8" d="M287.7,176c0,0-5.8,2-3.7,8.9l47.4,23c0,0,7.5-0.3,7.6-7.4L287.7,176z"></path><ellipse class="st10" cx="188.8" cy="358.6" rx="4.9" ry="5.2"></ellipse><ellipse class="st10" cx="225.9" cy="375.6" rx="4.9" ry="5.2"></ellipse><ellipse class="st10" cx="320.9" cy="332.5" rx="4.9" ry="5.2"></ellipse><rect class="st10" x="187.5" y="277" transform="matrix(0.9949 -0.1005 0.1005 0.9949 -29.3222 20.4217)" width="1" height="48.5"></rect><path class="st10" d="M225.9,332.1L178.7,304l88-50.8l59.3,31.4l-0.2,0.5l0.2,0.5c-33.2,15-95.8,43.4-100.2,45.9L225.9,332.1z
		 M180.7,304l44.6,26.6c1.1-0.7,4.7-2.4,15.4-7.3c8.3-3.9,20-9.2,34.6-15.8c22.2-10.1,44.7-20.3,49.4-22.5l-58-30.7L180.7,304z"></path><rect class="st10" x="244.2" y="289.1" transform="matrix(0.9993 -3.664371e-02 3.664371e-02 0.9993 -11.2959 9.1752)" width="1" height="47.2"></rect><rect class="st10" x="263.2" y="277.7" transform="matrix(0.9998 -2.129141e-02 2.129141e-02 0.9998 -6.3883 5.684)" width="1" height="50.3"></rect><rect class="st10" x="257.9" y="289.8" transform="matrix(5.669279e-02 -0.9984 0.9984 5.669279e-02 -19.6351 559.8666)" width="57.2" height="1"></rect><rect class="st10" x="277.3" y="277.9" transform="matrix(0.1064 -0.9943 0.9943 0.1064 -0.8473 555.7714)" width="63.1" height="1"></rect><path class="st10" d="M225.4,314.4l-49.5-29v-0.3c0-0.4,0-0.5,46.4-28.9c23.1-14.1,46.2-28.3,46.2-28.3l0.2-0.1l0.2,0.1l61,31.6
		l-0.5,0.9L268.9,229c-29.9,18.3-85,52-91.5,56.1l48.1,28.2l103.8-49.2l0.4,0.9L225.4,314.4z"></path><path class="st10" d="M225.9,369.1l-0.2-0.1l-37.1-18.9l21.8-13.8l-2.4-29.5l-25.1,14.2l-0.5-0.9l25.6-14.5l-1.3-16.5l1-0.1l1.3,16
		l56.6-32.1l58.5,28.2l-1,21.8L225.9,369.1z M190.6,350l35.4,18l96-45.4l1-20.6l-57.4-27.7l-56.6,32l2.5,30.5L190.6,350z"></path><path class="st10" d="M284,282.5l-1-0.1c0.1-0.7,7.6-71.8,7.8-73.2l1,0.1C291.6,210.7,284.1,281.8,284,282.5z"></path><rect class="st10" x="275.1" y="257.5" transform="matrix(0.1231 -0.9924 0.9924 0.1231 16.4406 534.6236)" width="71.4" height="1"></rect><path class="st10" d="M249.6,282.4c-0.1-2.7-1.4-66.6-1.4-67.6h1c0,1.1,1.4,67,1.4,67.6L249.6,282.4z"></path><path class="st10" d="M231.5,294.1c-0.8-18.1-3-65.3-3.4-66.9l0.5-0.2l-0.3-0.4l0.5-0.1c0.4,0.2,0.7,0.3,3.7,67.4L231.5,294.1z"></path><rect class="st10" x="209" y="242.3" transform="matrix(0.9964 -8.489522e-02 8.489522e-02 0.9964 -21.9898 18.7527)" width="1" height="51.2"></rect><path class="st10" d="M192.7,281.2c-3.9-26-3.3-26.4-3-26.7l0.6,0.8L190,255l0.4,0.2c-0.3,1.2,1.8,16.5,3.2,25.9L192.7,281.2z"></path><path class="st4" d="M219.9,247.2v-15.5c0-3.6-0.4-7.7,0.5-11.2c1.1-4.2,6.4-9.8,10.9-6.4c2.3,1.7,2.4,5.2,2.4,7.8v16.7
		c0.1,0.8,0.8,1.3,1.5,1.2c0.6-0.1,1.1-0.6,1.2-1.2c0-6.5,0.7-13.4-0.2-19.8c-1-7.7-8.5-11-14.8-5.6c-4.2,3.6-4.5,9.1-4.5,14.2v19.9
		c0.1,0.8,0.8,1.3,1.5,1.2C219.3,248.4,219.8,247.9,219.9,247.2L219.9,247.2z"></path><polygon class="st5" points="204.2,238.4 243.5,215.9 256.3,221.9 219.6,252.2 	"></polygon><polygon class="st6" points="204.2,238.4 243.5,215.9 256.3,221.9 219.6,252.2 	"></polygon><path class="st5" d="M220.6,244.6c1.1-0.7,35.8-22.6,35.8-22.6l11.4,57.5L219.4,306L220.6,244.6z"></path><polyline class="st5" points="220.6,244.6 204.2,238.2 196.3,296.8 219.4,306 	"></polyline><polyline class="st7" points="220.6,244.6 204.2,238.2 196.3,296.8 219.4,306 	"></polyline><path class="st4" d="M232.2,250.8v-15.5c0-3.6-0.4-7.7,0.5-11.2c1.1-4.1,6.4-9.7,10.9-6.4c2.3,1.7,2.4,5.2,2.4,7.8v16.8
		c0.1,0.8,0.8,1.3,1.5,1.2c0.6-0.1,1.2-0.6,1.2-1.2c0-6.5,0.7-13.4-0.2-19.8c-1-7.7-8.5-11-14.8-5.6c-4.2,3.6-4.5,9.1-4.5,14.2v19.9
		c0.1,0.8,0.8,1.3,1.5,1.2C231.6,252,232.1,251.5,232.2,250.8L232.2,250.8z"></path><path class="st11" d="M235,282.8l76.7-44.3v41.7c0,0-76.7,45.7-76.7,44.3V282.8z"></path><polygon class="st12" points="235,282.8 221,276.6 221,318.3 235,324.5 	"></polygon><polygon class="st13" points="221,276.6 235,285.1 311.8,238.6 298.9,231.3 	"></polygon><path class="st10" d="M334.2,230.5l-1.3-0.8c-0.1,0.1-0.3,0.2-0.4,0.3c-1.5,0.9-3,1.7-4.6,2.4l0.4,0.2L265,271.2l-36.8,22.4
		c-1.5,0.7-2.9,1.5-4.2,2.6c-3.2-2.8-8.7-4.8-12.2-6.9l-36.1-21.2h0.1c-1.5-0.8-3-1.7-4.4-2.6l0,0l-1.2,0.9
		c-1.1,0.7-1.5,2.2-0.8,3.3c0,0,0,0,0,0c0.2,0.3,0.5,0.6,0.8,0.8l52.4,30.8c0.7,0.4,1.7,0.4,2.4,0l109.1-66.5c0.6-0.4,1-1,1.1-1.7
		C335.6,232,335.1,231,334.2,230.5z"></path><path class="st10" d="M269,199.4c0.2,0.2,0.4,0.3,0.6,0.4C269.4,199.7,269.2,199.6,269,199.4z"></path><path class="st10" d="M224.5,296.5c0.1,0.1,0.3,0.2,0.4,0.4C224.7,296.8,224.6,296.7,224.5,296.5z"></path><rect class="st10" x="224" y="297.4" transform="matrix(0.9989 -4.623474e-02 4.623474e-02 0.9989 -14.6294 10.7389)" width="1.6" height="48.5"></rect><path class="st10" d="M347.4,208.3l-32-16.3l-21.2-10.9c-2.6-1.3-6.8-4.8-9.8-5c-3.5-0.3-11.6,5.3-13.9,7.8s-2.5,6.9-2.7,10.6
		c1.7,0,3.4,0.2,5.1,0.3c0.2-1.4,0.4-2.9,0.6-4.8c0-0.4,0.3-1.7,0.4-2.5c0.6-0.4,1.6-1.1,2-1.4c2.8-1.5,5.6-3.1,8.2-5l0.5,0.3
		c2,1.2,4.1,2.3,6.2,3.2l19.4,9.9l32,16.3c-2.6,2.3-4.9,4.9-6.7,7.8c-2.1,3.9-2.5,9.9-3.3,14.4c-1.6,8.4-2.8,17-4.1,25.6l-6.2,38
		c-0.2,1.1-0.3,2.2-0.5,3.3c-2.9,1.1-5.8,2.6-8.6,3.8l-72.4,32.2l-12,5.3c-0.5,0.2-1.4,0.5-2.1,0.8c-2.2-2.7-9.9-5.3-12.6-6.8
		L195,324.8l-8.1-4.5l-2.1-1.2c-1.2-4.2-1.5-9-2.2-13.2l-6.4-36.7c-0.5-3-5.1-1.8-4.6,1.3c1.9,10.8,4.4,21.5,5.6,32.4
		c0.7,6.6,0.3,17.4,6.2,21.1c11.1,7,23,12.9,34.4,19.3c2.5,1.4,5.9,4.4,8.9,4.2c1.6-0.1,3.6-1.6,5-2.2l73-32.5l14.3-6.4
		c1.6-0.7,4.5-1.4,5.8-2.6c1.7-1.6,1.6-4.3,2-6.6l2.9-17.9c2.3-14.1,4.4-28.3,6.8-42.5c0.7-4.1,1.6-8,2.6-12.1s0-2.6,2.7-5.7l6.2-7
		c0.9-1,0.9-2.5,0-3.4C347.8,208.5,347.6,208.4,347.4,208.3z"></path><path class="st4" d="M287.7,176c0,0-5.8,2-3.7,8.9l47.3,23c0,0,7.5-0.3,7.6-7.4L287.7,176z"></path><ellipse class="st10" cx="188.8" cy="358.6" rx="4.9" ry="5.2"></ellipse><ellipse class="st10" cx="225.9" cy="375.6" rx="4.9" ry="5.2"></ellipse><ellipse class="st10" cx="320.9" cy="332.5" rx="4.9" ry="5.2"></ellipse><rect class="st10" x="189.2" y="277.6" transform="matrix(0.9946 -0.1037 0.1037 0.9946 -30.2763 21.3229)" width="1.6" height="48.8"></rect><path class="st10" d="M327.6,285.1l-43.1-22.8l-1.6,0.9l41.1,21.8c-5.8,2.6-27.3,12.4-48.8,22.1c-37.4,17-47.3,21.6-49.8,23.1
		L181.3,304l26.6-15.4l-1.6-0.9L178.2,304l47.9,28.6v-1c5.4-2.8,67.1-30.9,100.1-45.8L327.6,285.1z"></path><rect class="st10" x="245.1" y="288.6" transform="matrix(0.9992 -3.996804e-02 3.996804e-02 0.9992 -12.2809 10.0761)" width="1.6" height="47.2"></rect><rect class="st10" x="263" y="277.7" transform="matrix(0.9998 -2.129141e-02 2.129141e-02 0.9998 -6.3882 5.6847)" width="1.6" height="50.3"></rect><rect class="st10" x="257.9" y="289.5" transform="matrix(5.669279e-02 -0.9984 0.9984 5.669279e-02 -19.5907 559.9061)" width="57.2" height="1.6"></rect><rect class="st10" x="277.3" y="277.6" transform="matrix(0.1064 -0.9943 0.9943 0.1064 -0.8307 555.7757)" width="63.1" height="1.6"></rect><path class="st10" d="M308.7,248.1l-1.6,0.9l22.5,11.6l0.7-1.4L308.7,248.1z"></path><path class="st10" d="M225.5,312.9L178,285c1.8-1.1,5.7-3.6,11.1-6.9c-0.5-0.3-1-0.7-1.4-1c-12,7.5-12,7.6-11.9,8.1v0.4l49.3,29
		l0.4,0.2l104.4-49.5l-0.7-1.4L225.5,312.9z"></path><path class="st10" d="M225.9,369.4L188,350.2l22.1-14l-2.4-28.8l-24.7,14l-0.8-1.4l25.4-14.4l-1.3-16.3l1.6-0.1l1.3,15.5l56.4-32
		l58.8,28.4l-1,22.2L225.9,369.4z M191.2,350l34.8,17.6l95.8-45.2l0.9-20.2l-57.2-27.6l-56.3,31.9l2.5,30.5L191.2,350z"></path><path class="st4" d="M355,144.9c-0.3-6.7,5.2-28.3,0.2-33.4c-1.1-0.6-8.8-6.5-9.9-7.1c-3.7-1.9-8-2.5-12.1-1.6
		c-4.8,1-9.3,3-13.3,5.7c-9.1,5.9-2.7,33.2,1.2,47c10.4,5.6,24.1,4.6,34.1-1.6C355,144.9,355.5,153.9,355,144.9z"></path><path class="st8" d="M325.7,89.8c-0.3,1.2-0.6,15.8,8.6,16.7s10.7-10.7,10.1-16.7S328.8,78.6,325.7,89.8z"></path><path class="st10" d="M325.6,95.7c0.2,0.5,4.6-5.2,6.7-8c0,0,2.8,12.6,11.2,9.5c-1.1,2.1-1.9,4.4-2.4,6.7c0,0,6-2.5,6.5-11.8
		s-4.1-13.2-10.5-13.6C332.8,78.3,319,81.7,325.6,95.7z"></path><path class="st8" d="M344.5,96.8c-0.5-0.7-1.4-0.8-2.1-0.4c-0.9,0.7-1.5,1.7-1.8,2.8c-0.1,0.3,0.1,0.6,0.4,0.7c0,0,0,0,0,0
		c0.1,0,0.1,0,0.2,0l-0.3,0.4c-0.1,0.1-0.1,0.1-0.1,0.2c-0.5,0.5,0,1.4,0.7,1c0.9-0.6,1.7-1.3,2.4-2.2
		C344.4,98.8,345.1,97.7,344.5,96.8z"></path><path class="st8" d="M292.6,185.8c2.3-3.1,4.7-6.1,7.2-9c1.3-1.6,2.6-3.2,4-4.8c-1.4-2.8-6.5-0.2-8.5-3.5c-3,1.7-5.7,3.9-8.1,6.4
		c-0.2,0.2-0.4,0.5-0.4,0.8c-1.3,0.7-2.3,1.8-3,3.1c-0.2,0.7,0.2,1.5,0.9,1.8c0.2,0.1,0.5,0.1,0.7,0l0.5-0.1c-0.4,0.4-0.7,0.9-1,1.3
		c-0.5,0.5-0.9,1.1-1.1,1.8c-0.2,0.7,0.2,1.5,0.9,1.7h0.2c-0.8,1.2-1.2,2.5,0.8,3h0.1c0.6,0.2,1.2,0,1.6-0.4
		c0.4-0.4,0.8-0.9,1.1-1.3c0,0.7,0.5,1.3,1.2,1.4c0.4,0.4,1.1,0.4,1.5,0l0.1-0.1l1.1-1.2C292.4,186.4,292.5,186.1,292.6,185.8z"></path><path class="st8" d="M322.2,176.1c-1.2,1.6-6.7,11.8-8,13.3l0,0l-3.6,4.9c-0.4,0.5-0.3,1.1,0.1,1.5c0,0,0,0,0,0l0.1,0.1
		c0.3,0.7,1,1,1.7,0.9c-0.4,0.5-0.7,0.9-1,1.4c-0.4,0.5-0.4,1.1-0.1,1.6v0.1c0.9,1.8,2.1,1.1,3,0.1c0.3,0.7,1.1,1,1.8,0.7l0.2-0.1
		c0.6-0.4,1.1-0.9,1.5-1.5c0.4-0.4,0.8-0.9,1.1-1.3v0.5c0,0.8,0.6,1.4,1.4,1.4c0,0,0,0,0,0c0.2,0,0.5-0.1,0.7-0.2
		c1.1-0.9,2-2.2,2.4-3.6c0.3-0.1,0.5-0.3,0.7-0.5c1.7-2.9,7-13.2,7.8-16.5C328.6,177.8,326.1,176,322.2,176.1z"></path><polyline class="st8" points="317.8,184.7 311.3,187.2 315.5,189.2 	"></polyline><path class="st4" d="M317.8,178.5c0,0,8,7.3,15.1,6.2c0,0,15.9-28.5,18.5-38.8s5.9-31.8,0-33.4s-12.8,3.7-14.4,10.5
		c-1.6,6.8-3.5,28.4-3.5,28.4L317.8,178.5z"></path><path class="st4" d="M289,166.9c0,0,6.9,8.3,14.1,8.2c0,0,19.6-26,23.7-35.9s10.2-30.7,4.5-33.1s-13.2,1.9-15.6,8.5
		c-3.9,10.6-6,23-12.1,32.5c-2.1,3.2-4.8,6.1-7,9.3L289,166.9z"></path><polygon class="st8" points="301,175.5 301,182.5 296.8,180.5 	"></polygon><path class="st10" d="M322.2,126.3c0-0.4-0.4-0.8-0.8-0.8c-0.4,0-0.8,0.4-0.8,0.8l0,0c-0.3,9.4-0.3,18.8,0,28.2
		c0,0.4,0.4,0.8,0.8,0.8c0.4,0,0.8-0.4,0.8-0.8C321.9,145.1,321.9,135.7,322.2,126.3z"></path><polygon class="st10" points="346.8,157.7 354.8,137.6 355.3,153.9 	"></polygon><path class="st10" d="M338.7,131c-3.6,16.5-10.6,32.1-20.6,45.7c-0.6,0.8,0.8,1.6,1.4,0.8c10.1-13.7,17.2-29.5,20.8-46.1
		C340.4,130.4,338.9,130,338.7,131z"></path></g></svg>